<?xml version="1.0" encoding="UTF-8" standalone="yes"?>
<!DOCTYPE svg PUBLIC "-//W3C//DTD SVG 1.0//EN" "http://www.w3.org/TR/2001/REC-SVG-20010904/DTD/svg10.dtd">
<svg height="500" width="750" xmlns="http://www.w3.org/2000/svg" xmlns:svg="http://www.w3.org/2000/svg" xmlns:xlink="http://www.w3.org/1999/xlink">
	<title>Roadmap to the Unicode SSP</title>
	<desc>This chart is a roadmap of character allocation for Unicode plane 14: Supplementary Special-purpose Plane (SSP).  It was created on 2022-09-15 using Unicode 15.0 data.  Characters are categorized more-or-less by the chapters in The Unicode Standard.</desc>
	<defs>
		<linearGradient gradientUnits="userSpaceOnUse" id="grad0" x1="1" x2="32.125">
		<stop offset="0%" stop-color="slategray" />
		<stop offset="50%" stop-color="slategray" />
		<stop offset="50%" stop-color="white" />
		<stop offset="100%" stop-color="white" />
		</linearGradient>
		<linearGradient gradientUnits="userSpaceOnUse" id="grad1" x1="32.125" x2="63.25">
		<stop offset="0%" stop-color="darkkhaki" />
		<stop offset="93.75%" stop-color="darkkhaki" />
		<stop offset="93.75%" stop-color="white" />
		<stop offset="100%" stop-color="white" />
		</linearGradient>
	</defs>
	<rect fill="white" height="500" width="750" x="0" y="0" />
	<g stroke="gainsboro" stroke-width="2px">
		<rect fill="url(#grad0)" height="31.125" width="31.125" x="1" y="1" />
		<rect fill="url(#grad1)" height="31.125" width="31.125" x="32.125" y="1" />
		<rect fill="white" height="31.125" width="31.125" x="63.25" y="1" />
		<rect fill="white" height="31.125" width="31.125" x="94.375" y="1" />
		<rect fill="white" height="31.125" width="31.125" x="125.5" y="1" />
		<rect fill="white" height="31.125" width="31.125" x="156.625" y="1" />
		<rect fill="white" height="31.125" width="31.125" x="187.75" y="1" />
		<rect fill="white" height="31.125" width="31.125" x="218.875" y="1" />
		<rect fill="white" height="31.125" width="31.125" x="250" y="1" />
		<rect fill="white" height="31.125" width="31.125" x="281.125" y="1" />
		<rect fill="white" height="31.125" width="31.125" x="312.25" y="1" />
		<rect fill="white" height="31.125" width="31.125" x="343.375" y="1" />
		<rect fill="white" height="31.125" width="31.125" x="374.5" y="1" />
		<rect fill="white" height="31.125" width="31.125" x="405.625" y="1" />
		<rect fill="white" height="31.125" width="31.125" x="436.75" y="1" />
		<rect fill="white" height="31.125" width="31.125" x="467.875" y="1" />
		<rect fill="white" height="31.125" width="31.125" x="1" y="32.125" />
		<rect fill="white" height="31.125" width="31.125" x="32.125" y="32.125" />
		<rect fill="white" height="31.125" width="31.125" x="63.25" y="32.125" />
		<rect fill="white" height="31.125" width="31.125" x="94.375" y="32.125" />
		<rect fill="white" height="31.125" width="31.125" x="125.5" y="32.125" />
		<rect fill="white" height="31.125" width="31.125" x="156.625" y="32.125" />
		<rect fill="white" height="31.125" width="31.125" x="187.75" y="32.125" />
		<rect fill="white" height="31.125" width="31.125" x="218.875" y="32.125" />
		<rect fill="white" height="31.125" width="31.125" x="250" y="32.125" />
		<rect fill="white" height="31.125" width="31.125" x="281.125" y="32.125" />
		<rect fill="white" height="31.125" width="31.125" x="312.25" y="32.125" />
		<rect fill="white" height="31.125" width="31.125" x="343.375" y="32.125" />
		<rect fill="white" height="31.125" width="31.125" x="374.5" y="32.125" />
		<rect fill="white" height="31.125" width="31.125" x="405.625" y="32.125" />
		<rect fill="white" height="31.125" width="31.125" x="436.75" y="32.125" />
		<rect fill="white" height="31.125" width="31.125" x="467.875" y="32.125" />
		<rect fill="white" height="31.125" width="31.125" x="1" y="63.25" />
		<rect fill="white" height="31.125" width="31.125" x="32.125" y="63.25" />
		<rect fill="white" height="31.125" width="31.125" x="63.25" y="63.25" />
		<rect fill="white" height="31.125" width="31.125" x="94.375" y="63.25" />
		<rect fill="white" height="31.125" width="31.125" x="125.5" y="63.25" />
		<rect fill="white" height="31.125" width="31.125" x="156.625" y="63.25" />
		<rect fill="white" height="31.125" width="31.125" x="187.75" y="63.25" />
		<rect fill="white" height="31.125" width="31.125" x="218.875" y="63.25" />
		<rect fill="white" height="31.125" width="31.125" x="250" y="63.25" />
		<rect fill="white" height="31.125" width="31.125" x="281.125" y="63.25" />
		<rect fill="white" height="31.125" width="31.125" x="312.25" y="63.25" />
		<rect fill="white" height="31.125" width="31.125" x="343.375" y="63.25" />
		<rect fill="white" height="31.125" width="31.125" x="374.5" y="63.25" />
		<rect fill="white" height="31.125" width="31.125" x="405.625" y="63.25" />
		<rect fill="white" height="31.125" width="31.125" x="436.75" y="63.25" />
		<rect fill="white" height="31.125" width="31.125" x="467.875" y="63.25" />
		<rect fill="white" height="31.125" width="31.125" x="1" y="94.375" />
		<rect fill="white" height="31.125" width="31.125" x="32.125" y="94.375" />
		<rect fill="white" height="31.125" width="31.125" x="63.25" y="94.375" />
		<rect fill="white" height="31.125" width="31.125" x="94.375" y="94.375" />
		<rect fill="white" height="31.125" width="31.125" x="125.5" y="94.375" />
		<rect fill="white" height="31.125" width="31.125" x="156.625" y="94.375" />
		<rect fill="white" height="31.125" width="31.125" x="187.75" y="94.375" />
		<rect fill="white" height="31.125" width="31.125" x="218.875" y="94.375" />
		<rect fill="white" height="31.125" width="31.125" x="250" y="94.375" />
		<rect fill="white" height="31.125" width="31.125" x="281.125" y="94.375" />
		<rect fill="white" height="31.125" width="31.125" x="312.25" y="94.375" />
		<rect fill="white" height="31.125" width="31.125" x="343.375" y="94.375" />
		<rect fill="white" height="31.125" width="31.125" x="374.5" y="94.375" />
		<rect fill="white" height="31.125" width="31.125" x="405.625" y="94.375" />
		<rect fill="white" height="31.125" width="31.125" x="436.75" y="94.375" />
		<rect fill="white" height="31.125" width="31.125" x="467.875" y="94.375" />
		<rect fill="white" height="31.125" width="31.125" x="1" y="125.5" />
		<rect fill="white" height="31.125" width="31.125" x="32.125" y="125.5" />
		<rect fill="white" height="31.125" width="31.125" x="63.25" y="125.5" />
		<rect fill="white" height="31.125" width="31.125" x="94.375" y="125.5" />
		<rect fill="white" height="31.125" width="31.125" x="125.5" y="125.5" />
		<rect fill="white" height="31.125" width="31.125" x="156.625" y="125.5" />
		<rect fill="white" height="31.125" width="31.125" x="187.75" y="125.5" />
		<rect fill="white" height="31.125" width="31.125" x="218.875" y="125.5" />
		<rect fill="white" height="31.125" width="31.125" x="250" y="125.5" />
		<rect fill="white" height="31.125" width="31.125" x="281.125" y="125.5" />
		<rect fill="white" height="31.125" width="31.125" x="312.25" y="125.5" />
		<rect fill="white" height="31.125" width="31.125" x="343.375" y="125.5" />
		<rect fill="white" height="31.125" width="31.125" x="374.5" y="125.5" />
		<rect fill="white" height="31.125" width="31.125" x="405.625" y="125.5" />
		<rect fill="white" height="31.125" width="31.125" x="436.75" y="125.5" />
		<rect fill="white" height="31.125" width="31.125" x="467.875" y="125.5" />
		<rect fill="white" height="31.125" width="31.125" x="1" y="156.625" />
		<rect fill="white" height="31.125" width="31.125" x="32.125" y="156.625" />
		<rect fill="white" height="31.125" width="31.125" x="63.25" y="156.625" />
		<rect fill="white" height="31.125" width="31.125" x="94.375" y="156.625" />
		<rect fill="white" height="31.125" width="31.125" x="125.5" y="156.625" />
		<rect fill="white" height="31.125" width="31.125" x="156.625" y="156.625" />
		<rect fill="white" height="31.125" width="31.125" x="187.75" y="156.625" />
		<rect fill="white" height="31.125" width="31.125" x="218.875" y="156.625" />
		<rect fill="white" height="31.125" width="31.125" x="250" y="156.625" />
		<rect fill="white" height="31.125" width="31.125" x="281.125" y="156.625" />
		<rect fill="white" height="31.125" width="31.125" x="312.25" y="156.625" />
		<rect fill="white" height="31.125" width="31.125" x="343.375" y="156.625" />
		<rect fill="white" height="31.125" width="31.125" x="374.5" y="156.625" />
		<rect fill="white" height="31.125" width="31.125" x="405.625" y="156.625" />
		<rect fill="white" height="31.125" width="31.125" x="436.75" y="156.625" />
		<rect fill="white" height="31.125" width="31.125" x="467.875" y="156.625" />
		<rect fill="white" height="31.125" width="31.125" x="1" y="187.75" />
		<rect fill="white" height="31.125" width="31.125" x="32.125" y="187.75" />
		<rect fill="white" height="31.125" width="31.125" x="63.25" y="187.75" />
		<rect fill="white" height="31.125" width="31.125" x="94.375" y="187.75" />
		<rect fill="white" height="31.125" width="31.125" x="125.5" y="187.75" />
		<rect fill="white" height="31.125" width="31.125" x="156.625" y="187.75" />
		<rect fill="white" height="31.125" width="31.125" x="187.75" y="187.75" />
		<rect fill="white" height="31.125" width="31.125" x="218.875" y="187.75" />
		<rect fill="white" height="31.125" width="31.125" x="250" y="187.75" />
		<rect fill="white" height="31.125" width="31.125" x="281.125" y="187.75" />
		<rect fill="white" height="31.125" width="31.125" x="312.25" y="187.75" />
		<rect fill="white" height="31.125" width="31.125" x="343.375" y="187.75" />
		<rect fill="white" height="31.125" width="31.125" x="374.5" y="187.75" />
		<rect fill="white" height="31.125" width="31.125" x="405.625" y="187.75" />
		<rect fill="white" height="31.125" width="31.125" x="436.75" y="187.75" />
		<rect fill="white" height="31.125" width="31.125" x="467.875" y="187.75" />
		<rect fill="white" height="31.125" width="31.125" x="1" y="218.875" />
		<rect fill="white" height="31.125" width="31.125" x="32.125" y="218.875" />
		<rect fill="white" height="31.125" width="31.125" x="63.25" y="218.875" />
		<rect fill="white" height="31.125" width="31.125" x="94.375" y="218.875" />
		<rect fill="white" height="31.125" width="31.125" x="125.5" y="218.875" />
		<rect fill="white" height="31.125" width="31.125" x="156.625" y="218.875" />
		<rect fill="white" height="31.125" width="31.125" x="187.75" y="218.875" />
		<rect fill="white" height="31.125" width="31.125" x="218.875" y="218.875" />
		<rect fill="white" height="31.125" width="31.125" x="250" y="218.875" />
		<rect fill="white" height="31.125" width="31.125" x="281.125" y="218.875" />
		<rect fill="white" height="31.125" width="31.125" x="312.25" y="218.875" />
		<rect fill="white" height="31.125" width="31.125" x="343.375" y="218.875" />
		<rect fill="white" height="31.125" width="31.125" x="374.5" y="218.875" />
		<rect fill="white" height="31.125" width="31.125" x="405.625" y="218.875" />
		<rect fill="white" height="31.125" width="31.125" x="436.75" y="218.875" />
		<rect fill="white" height="31.125" width="31.125" x="467.875" y="218.875" />
		<rect fill="white" height="31.125" width="31.125" x="1" y="250" />
		<rect fill="white" height="31.125" width="31.125" x="32.125" y="250" />
		<rect fill="white" height="31.125" width="31.125" x="63.25" y="250" />
		<rect fill="white" height="31.125" width="31.125" x="94.375" y="250" />
		<rect fill="white" height="31.125" width="31.125" x="125.5" y="250" />
		<rect fill="white" height="31.125" width="31.125" x="156.625" y="250" />
		<rect fill="white" height="31.125" width="31.125" x="187.75" y="250" />
		<rect fill="white" height="31.125" width="31.125" x="218.875" y="250" />
		<rect fill="white" height="31.125" width="31.125" x="250" y="250" />
		<rect fill="white" height="31.125" width="31.125" x="281.125" y="250" />
		<rect fill="white" height="31.125" width="31.125" x="312.25" y="250" />
		<rect fill="white" height="31.125" width="31.125" x="343.375" y="250" />
		<rect fill="white" height="31.125" width="31.125" x="374.5" y="250" />
		<rect fill="white" height="31.125" width="31.125" x="405.625" y="250" />
		<rect fill="white" height="31.125" width="31.125" x="436.75" y="250" />
		<rect fill="white" height="31.125" width="31.125" x="467.875" y="250" />
		<rect fill="white" height="31.125" width="31.125" x="1" y="281.125" />
		<rect fill="white" height="31.125" width="31.125" x="32.125" y="281.125" />
		<rect fill="white" height="31.125" width="31.125" x="63.25" y="281.125" />
		<rect fill="white" height="31.125" width="31.125" x="94.375" y="281.125" />
		<rect fill="white" height="31.125" width="31.125" x="125.5" y="281.125" />
		<rect fill="white" height="31.125" width="31.125" x="156.625" y="281.125" />
		<rect fill="white" height="31.125" width="31.125" x="187.75" y="281.125" />
		<rect fill="white" height="31.125" width="31.125" x="218.875" y="281.125" />
		<rect fill="white" height="31.125" width="31.125" x="250" y="281.125" />
		<rect fill="white" height="31.125" width="31.125" x="281.125" y="281.125" />
		<rect fill="white" height="31.125" width="31.125" x="312.25" y="281.125" />
		<rect fill="white" height="31.125" width="31.125" x="343.375" y="281.125" />
		<rect fill="white" height="31.125" width="31.125" x="374.5" y="281.125" />
		<rect fill="white" height="31.125" width="31.125" x="405.625" y="281.125" />
		<rect fill="white" height="31.125" width="31.125" x="436.75" y="281.125" />
		<rect fill="white" height="31.125" width="31.125" x="467.875" y="281.125" />
		<rect fill="white" height="31.125" width="31.125" x="1" y="312.25" />
		<rect fill="white" height="31.125" width="31.125" x="32.125" y="312.25" />
		<rect fill="white" height="31.125" width="31.125" x="63.25" y="312.25" />
		<rect fill="white" height="31.125" width="31.125" x="94.375" y="312.25" />
		<rect fill="white" height="31.125" width="31.125" x="125.5" y="312.25" />
		<rect fill="white" height="31.125" width="31.125" x="156.625" y="312.25" />
		<rect fill="white" height="31.125" width="31.125" x="187.75" y="312.25" />
		<rect fill="white" height="31.125" width="31.125" x="218.875" y="312.25" />
		<rect fill="white" height="31.125" width="31.125" x="250" y="312.25" />
		<rect fill="white" height="31.125" width="31.125" x="281.125" y="312.25" />
		<rect fill="white" height="31.125" width="31.125" x="312.25" y="312.25" />
		<rect fill="white" height="31.125" width="31.125" x="343.375" y="312.25" />
		<rect fill="white" height="31.125" width="31.125" x="374.5" y="312.25" />
		<rect fill="white" height="31.125" width="31.125" x="405.625" y="312.25" />
		<rect fill="white" height="31.125" width="31.125" x="436.75" y="312.25" />
		<rect fill="white" height="31.125" width="31.125" x="467.875" y="312.25" />
		<rect fill="white" height="31.125" width="31.125" x="1" y="343.375" />
		<rect fill="white" height="31.125" width="31.125" x="32.125" y="343.375" />
		<rect fill="white" height="31.125" width="31.125" x="63.25" y="343.375" />
		<rect fill="white" height="31.125" width="31.125" x="94.375" y="343.375" />
		<rect fill="white" height="31.125" width="31.125" x="125.5" y="343.375" />
		<rect fill="white" height="31.125" width="31.125" x="156.625" y="343.375" />
		<rect fill="white" height="31.125" width="31.125" x="187.75" y="343.375" />
		<rect fill="white" height="31.125" width="31.125" x="218.875" y="343.375" />
		<rect fill="white" height="31.125" width="31.125" x="250" y="343.375" />
		<rect fill="white" height="31.125" width="31.125" x="281.125" y="343.375" />
		<rect fill="white" height="31.125" width="31.125" x="312.25" y="343.375" />
		<rect fill="white" height="31.125" width="31.125" x="343.375" y="343.375" />
		<rect fill="white" height="31.125" width="31.125" x="374.5" y="343.375" />
		<rect fill="white" height="31.125" width="31.125" x="405.625" y="343.375" />
		<rect fill="white" height="31.125" width="31.125" x="436.75" y="343.375" />
		<rect fill="white" height="31.125" width="31.125" x="467.875" y="343.375" />
		<rect fill="white" height="31.125" width="31.125" x="1" y="374.5" />
		<rect fill="white" height="31.125" width="31.125" x="32.125" y="374.5" />
		<rect fill="white" height="31.125" width="31.125" x="63.25" y="374.5" />
		<rect fill="white" height="31.125" width="31.125" x="94.375" y="374.5" />
		<rect fill="white" height="31.125" width="31.125" x="125.5" y="374.5" />
		<rect fill="white" height="31.125" width="31.125" x="156.625" y="374.5" />
		<rect fill="white" height="31.125" width="31.125" x="187.75" y="374.5" />
		<rect fill="white" height="31.125" width="31.125" x="218.875" y="374.5" />
		<rect fill="white" height="31.125" width="31.125" x="250" y="374.5" />
		<rect fill="white" height="31.125" width="31.125" x="281.125" y="374.5" />
		<rect fill="white" height="31.125" width="31.125" x="312.25" y="374.5" />
		<rect fill="white" height="31.125" width="31.125" x="343.375" y="374.5" />
		<rect fill="white" height="31.125" width="31.125" x="374.5" y="374.5" />
		<rect fill="white" height="31.125" width="31.125" x="405.625" y="374.5" />
		<rect fill="white" height="31.125" width="31.125" x="436.75" y="374.5" />
		<rect fill="white" height="31.125" width="31.125" x="467.875" y="374.5" />
		<rect fill="white" height="31.125" width="31.125" x="1" y="405.625" />
		<rect fill="white" height="31.125" width="31.125" x="32.125" y="405.625" />
		<rect fill="white" height="31.125" width="31.125" x="63.25" y="405.625" />
		<rect fill="white" height="31.125" width="31.125" x="94.375" y="405.625" />
		<rect fill="white" height="31.125" width="31.125" x="125.5" y="405.625" />
		<rect fill="white" height="31.125" width="31.125" x="156.625" y="405.625" />
		<rect fill="white" height="31.125" width="31.125" x="187.75" y="405.625" />
		<rect fill="white" height="31.125" width="31.125" x="218.875" y="405.625" />
		<rect fill="white" height="31.125" width="31.125" x="250" y="405.625" />
		<rect fill="white" height="31.125" width="31.125" x="281.125" y="405.625" />
		<rect fill="white" height="31.125" width="31.125" x="312.25" y="405.625" />
		<rect fill="white" height="31.125" width="31.125" x="343.375" y="405.625" />
		<rect fill="white" height="31.125" width="31.125" x="374.5" y="405.625" />
		<rect fill="white" height="31.125" width="31.125" x="405.625" y="405.625" />
		<rect fill="white" height="31.125" width="31.125" x="436.75" y="405.625" />
		<rect fill="white" height="31.125" width="31.125" x="467.875" y="405.625" />
		<rect fill="white" height="31.125" width="31.125" x="1" y="436.75" />
		<rect fill="white" height="31.125" width="31.125" x="32.125" y="436.75" />
		<rect fill="white" height="31.125" width="31.125" x="63.25" y="436.75" />
		<rect fill="white" height="31.125" width="31.125" x="94.375" y="436.75" />
		<rect fill="white" height="31.125" width="31.125" x="125.5" y="436.75" />
		<rect fill="white" height="31.125" width="31.125" x="156.625" y="436.75" />
		<rect fill="white" height="31.125" width="31.125" x="187.75" y="436.75" />
		<rect fill="white" height="31.125" width="31.125" x="218.875" y="436.75" />
		<rect fill="white" height="31.125" width="31.125" x="250" y="436.75" />
		<rect fill="white" height="31.125" width="31.125" x="281.125" y="436.75" />
		<rect fill="white" height="31.125" width="31.125" x="312.25" y="436.75" />
		<rect fill="white" height="31.125" width="31.125" x="343.375" y="436.75" />
		<rect fill="white" height="31.125" width="31.125" x="374.5" y="436.75" />
		<rect fill="white" height="31.125" width="31.125" x="405.625" y="436.75" />
		<rect fill="white" height="31.125" width="31.125" x="436.75" y="436.75" />
		<rect fill="white" height="31.125" width="31.125" x="467.875" y="436.75" />
		<rect fill="white" height="31.125" width="31.125" x="1" y="467.875" />
		<rect fill="white" height="31.125" width="31.125" x="32.125" y="467.875" />
		<rect fill="white" height="31.125" width="31.125" x="63.25" y="467.875" />
		<rect fill="white" height="31.125" width="31.125" x="94.375" y="467.875" />
		<rect fill="white" height="31.125" width="31.125" x="125.5" y="467.875" />
		<rect fill="white" height="31.125" width="31.125" x="156.625" y="467.875" />
		<rect fill="white" height="31.125" width="31.125" x="187.75" y="467.875" />
		<rect fill="white" height="31.125" width="31.125" x="218.875" y="467.875" />
		<rect fill="white" height="31.125" width="31.125" x="250" y="467.875" />
		<rect fill="white" height="31.125" width="31.125" x="281.125" y="467.875" />
		<rect fill="white" height="31.125" width="31.125" x="312.25" y="467.875" />
		<rect fill="white" height="31.125" width="31.125" x="343.375" y="467.875" />
		<rect fill="white" height="31.125" width="31.125" x="374.5" y="467.875" />
		<rect fill="white" height="31.125" width="31.125" x="405.625" y="467.875" />
		<rect fill="white" height="31.125" width="31.125" x="436.75" y="467.875" />
		<rect fill="white" height="31.125" width="31.125" x="467.875" y="467.875" /></g>
	<g font-family="'DejaVu Sans', sans-serif" font-size="13px" text-anchor="middle">
		<text fill="black" x="16.5625" y="21.75">E00</text>
		<text fill="black" x="47.6875" y="21.75">E01</text>
		<text fill="black" x="78.8125" y="21.75">E02</text>
		<text fill="black" x="109.9375" y="21.75">E03</text>
		<text fill="black" x="141.0625" y="21.75">E04</text>
		<text fill="black" x="172.1875" y="21.75">E05</text>
		<text fill="black" x="203.3125" y="21.75">E06</text>
		<text fill="black" x="234.4375" y="21.75">E07</text>
		<text fill="black" x="265.5625" y="21.75">E08</text>
		<text fill="black" x="296.6875" y="21.75">E09</text>
		<text fill="black" x="327.8125" y="21.75">E0A</text>
		<text fill="black" x="358.9375" y="21.75">E0B</text>
		<text fill="black" x="390.0625" y="21.75">E0C</text>
		<text fill="black" x="421.1875" y="21.75">E0D</text>
		<text fill="black" x="452.3125" y="21.75">E0E</text>
		<text fill="black" x="483.4375" y="21.75">E0F</text>
		<text fill="black" x="16.5625" y="52.875">E10</text>
		<text fill="black" x="47.6875" y="52.875">E11</text>
		<text fill="black" x="78.8125" y="52.875">E12</text>
		<text fill="black" x="109.9375" y="52.875">E13</text>
		<text fill="black" x="141.0625" y="52.875">E14</text>
		<text fill="black" x="172.1875" y="52.875">E15</text>
		<text fill="black" x="203.3125" y="52.875">E16</text>
		<text fill="black" x="234.4375" y="52.875">E17</text>
		<text fill="black" x="265.5625" y="52.875">E18</text>
		<text fill="black" x="296.6875" y="52.875">E19</text>
		<text fill="black" x="327.8125" y="52.875">E1A</text>
		<text fill="black" x="358.9375" y="52.875">E1B</text>
		<text fill="black" x="390.0625" y="52.875">E1C</text>
		<text fill="black" x="421.1875" y="52.875">E1D</text>
		<text fill="black" x="452.3125" y="52.875">E1E</text>
		<text fill="black" x="483.4375" y="52.875">E1F</text>
		<text fill="black" x="16.5625" y="84">E20</text>
		<text fill="black" x="47.6875" y="84">E21</text>
		<text fill="black" x="78.8125" y="84">E22</text>
		<text fill="black" x="109.9375" y="84">E23</text>
		<text fill="black" x="141.0625" y="84">E24</text>
		<text fill="black" x="172.1875" y="84">E25</text>
		<text fill="black" x="203.3125" y="84">E26</text>
		<text fill="black" x="234.4375" y="84">E27</text>
		<text fill="black" x="265.5625" y="84">E28</text>
		<text fill="black" x="296.6875" y="84">E29</text>
		<text fill="black" x="327.8125" y="84">E2A</text>
		<text fill="black" x="358.9375" y="84">E2B</text>
		<text fill="black" x="390.0625" y="84">E2C</text>
		<text fill="black" x="421.1875" y="84">E2D</text>
		<text fill="black" x="452.3125" y="84">E2E</text>
		<text fill="black" x="483.4375" y="84">E2F</text>
		<text fill="black" x="16.5625" y="115.125">E30</text>
		<text fill="black" x="47.6875" y="115.125">E31</text>
		<text fill="black" x="78.8125" y="115.125">E32</text>
		<text fill="black" x="109.9375" y="115.125">E33</text>
		<text fill="black" x="141.0625" y="115.125">E34</text>
		<text fill="black" x="172.1875" y="115.125">E35</text>
		<text fill="black" x="203.3125" y="115.125">E36</text>
		<text fill="black" x="234.4375" y="115.125">E37</text>
		<text fill="black" x="265.5625" y="115.125">E38</text>
		<text fill="black" x="296.6875" y="115.125">E39</text>
		<text fill="black" x="327.8125" y="115.125">E3A</text>
		<text fill="black" x="358.9375" y="115.125">E3B</text>
		<text fill="black" x="390.0625" y="115.125">E3C</text>
		<text fill="black" x="421.1875" y="115.125">E3D</text>
		<text fill="black" x="452.3125" y="115.125">E3E</text>
		<text fill="black" x="483.4375" y="115.125">E3F</text>
		<text fill="black" x="16.5625" y="146.25">E40</text>
		<text fill="black" x="47.6875" y="146.25">E41</text>
		<text fill="black" x="78.8125" y="146.25">E42</text>
		<text fill="black" x="109.9375" y="146.25">E43</text>
		<text fill="black" x="141.0625" y="146.25">E44</text>
		<text fill="black" x="172.1875" y="146.25">E45</text>
		<text fill="black" x="203.3125" y="146.25">E46</text>
		<text fill="black" x="234.4375" y="146.25">E47</text>
		<text fill="black" x="265.5625" y="146.25">E48</text>
		<text fill="black" x="296.6875" y="146.25">E49</text>
		<text fill="black" x="327.8125" y="146.25">E4A</text>
		<text fill="black" x="358.9375" y="146.25">E4B</text>
		<text fill="black" x="390.0625" y="146.25">E4C</text>
		<text fill="black" x="421.1875" y="146.25">E4D</text>
		<text fill="black" x="452.3125" y="146.25">E4E</text>
		<text fill="black" x="483.4375" y="146.25">E4F</text>
		<text fill="black" x="16.5625" y="177.375">E50</text>
		<text fill="black" x="47.6875" y="177.375">E51</text>
		<text fill="black" x="78.8125" y="177.375">E52</text>
		<text fill="black" x="109.9375" y="177.375">E53</text>
		<text fill="black" x="141.0625" y="177.375">E54</text>
		<text fill="black" x="172.1875" y="177.375">E55</text>
		<text fill="black" x="203.3125" y="177.375">E56</text>
		<text fill="black" x="234.4375" y="177.375">E57</text>
		<text fill="black" x="265.5625" y="177.375">E58</text>
		<text fill="black" x="296.6875" y="177.375">E59</text>
		<text fill="black" x="327.8125" y="177.375">E5A</text>
		<text fill="black" x="358.9375" y="177.375">E5B</text>
		<text fill="black" x="390.0625" y="177.375">E5C</text>
		<text fill="black" x="421.1875" y="177.375">E5D</text>
		<text fill="black" x="452.3125" y="177.375">E5E</text>
		<text fill="black" x="483.4375" y="177.375">E5F</text>
		<text fill="black" x="16.5625" y="208.5">E60</text>
		<text fill="black" x="47.6875" y="208.5">E61</text>
		<text fill="black" x="78.8125" y="208.5">E62</text>
		<text fill="black" x="109.9375" y="208.5">E63</text>
		<text fill="black" x="141.0625" y="208.5">E64</text>
		<text fill="black" x="172.1875" y="208.5">E65</text>
		<text fill="black" x="203.3125" y="208.5">E66</text>
		<text fill="black" x="234.4375" y="208.5">E67</text>
		<text fill="black" x="265.5625" y="208.5">E68</text>
		<text fill="black" x="296.6875" y="208.5">E69</text>
		<text fill="black" x="327.8125" y="208.5">E6A</text>
		<text fill="black" x="358.9375" y="208.5">E6B</text>
		<text fill="black" x="390.0625" y="208.5">E6C</text>
		<text fill="black" x="421.1875" y="208.5">E6D</text>
		<text fill="black" x="452.3125" y="208.5">E6E</text>
		<text fill="black" x="483.4375" y="208.5">E6F</text>
		<text fill="black" x="16.5625" y="239.625">E70</text>
		<text fill="black" x="47.6875" y="239.625">E71</text>
		<text fill="black" x="78.8125" y="239.625">E72</text>
		<text fill="black" x="109.9375" y="239.625">E73</text>
		<text fill="black" x="141.0625" y="239.625">E74</text>
		<text fill="black" x="172.1875" y="239.625">E75</text>
		<text fill="black" x="203.3125" y="239.625">E76</text>
		<text fill="black" x="234.4375" y="239.625">E77</text>
		<text fill="black" x="265.5625" y="239.625">E78</text>
		<text fill="black" x="296.6875" y="239.625">E79</text>
		<text fill="black" x="327.8125" y="239.625">E7A</text>
		<text fill="black" x="358.9375" y="239.625">E7B</text>
		<text fill="black" x="390.0625" y="239.625">E7C</text>
		<text fill="black" x="421.1875" y="239.625">E7D</text>
		<text fill="black" x="452.3125" y="239.625">E7E</text>
		<text fill="black" x="483.4375" y="239.625">E7F</text>
		<text fill="black" x="16.5625" y="270.75">E80</text>
		<text fill="black" x="47.6875" y="270.75">E81</text>
		<text fill="black" x="78.8125" y="270.75">E82</text>
		<text fill="black" x="109.9375" y="270.75">E83</text>
		<text fill="black" x="141.0625" y="270.75">E84</text>
		<text fill="black" x="172.1875" y="270.75">E85</text>
		<text fill="black" x="203.3125" y="270.75">E86</text>
		<text fill="black" x="234.4375" y="270.75">E87</text>
		<text fill="black" x="265.5625" y="270.75">E88</text>
		<text fill="black" x="296.6875" y="270.75">E89</text>
		<text fill="black" x="327.8125" y="270.75">E8A</text>
		<text fill="black" x="358.9375" y="270.75">E8B</text>
		<text fill="black" x="390.0625" y="270.75">E8C</text>
		<text fill="black" x="421.1875" y="270.75">E8D</text>
		<text fill="black" x="452.3125" y="270.75">E8E</text>
		<text fill="black" x="483.4375" y="270.75">E8F</text>
		<text fill="black" x="16.5625" y="301.875">E90</text>
		<text fill="black" x="47.6875" y="301.875">E91</text>
		<text fill="black" x="78.8125" y="301.875">E92</text>
		<text fill="black" x="109.9375" y="301.875">E93</text>
		<text fill="black" x="141.0625" y="301.875">E94</text>
		<text fill="black" x="172.1875" y="301.875">E95</text>
		<text fill="black" x="203.3125" y="301.875">E96</text>
		<text fill="black" x="234.4375" y="301.875">E97</text>
		<text fill="black" x="265.5625" y="301.875">E98</text>
		<text fill="black" x="296.6875" y="301.875">E99</text>
		<text fill="black" x="327.8125" y="301.875">E9A</text>
		<text fill="black" x="358.9375" y="301.875">E9B</text>
		<text fill="black" x="390.0625" y="301.875">E9C</text>
		<text fill="black" x="421.1875" y="301.875">E9D</text>
		<text fill="black" x="452.3125" y="301.875">E9E</text>
		<text fill="black" x="483.4375" y="301.875">E9F</text>
		<text fill="black" x="16.5625" y="333">EA0</text>
		<text fill="black" x="47.6875" y="333">EA1</text>
		<text fill="black" x="78.8125" y="333">EA2</text>
		<text fill="black" x="109.9375" y="333">EA3</text>
		<text fill="black" x="141.0625" y="333">EA4</text>
		<text fill="black" x="172.1875" y="333">EA5</text>
		<text fill="black" x="203.3125" y="333">EA6</text>
		<text fill="black" x="234.4375" y="333">EA7</text>
		<text fill="black" x="265.5625" y="333">EA8</text>
		<text fill="black" x="296.6875" y="333">EA9</text>
		<text fill="black" x="327.8125" y="333">EAA</text>
		<text fill="black" x="358.9375" y="333">EAB</text>
		<text fill="black" x="390.0625" y="333">EAC</text>
		<text fill="black" x="421.1875" y="333">EAD</text>
		<text fill="black" x="452.3125" y="333">EAE</text>
		<text fill="black" x="483.4375" y="333">EAF</text>
		<text fill="black" x="16.5625" y="364.125">EB0</text>
		<text fill="black" x="47.6875" y="364.125">EB1</text>
		<text fill="black" x="78.8125" y="364.125">EB2</text>
		<text fill="black" x="109.9375" y="364.125">EB3</text>
		<text fill="black" x="141.0625" y="364.125">EB4</text>
		<text fill="black" x="172.1875" y="364.125">EB5</text>
		<text fill="black" x="203.3125" y="364.125">EB6</text>
		<text fill="black" x="234.4375" y="364.125">EB7</text>
		<text fill="black" x="265.5625" y="364.125">EB8</text>
		<text fill="black" x="296.6875" y="364.125">EB9</text>
		<text fill="black" x="327.8125" y="364.125">EBA</text>
		<text fill="black" x="358.9375" y="364.125">EBB</text>
		<text fill="black" x="390.0625" y="364.125">EBC</text>
		<text fill="black" x="421.1875" y="364.125">EBD</text>
		<text fill="black" x="452.3125" y="364.125">EBE</text>
		<text fill="black" x="483.4375" y="364.125">EBF</text>
		<text fill="black" x="16.5625" y="395.25">EC0</text>
		<text fill="black" x="47.6875" y="395.25">EC1</text>
		<text fill="black" x="78.8125" y="395.25">EC2</text>
		<text fill="black" x="109.9375" y="395.25">EC3</text>
		<text fill="black" x="141.0625" y="395.25">EC4</text>
		<text fill="black" x="172.1875" y="395.25">EC5</text>
		<text fill="black" x="203.3125" y="395.25">EC6</text>
		<text fill="black" x="234.4375" y="395.25">EC7</text>
		<text fill="black" x="265.5625" y="395.25">EC8</text>
		<text fill="black" x="296.6875" y="395.25">EC9</text>
		<text fill="black" x="327.8125" y="395.25">ECA</text>
		<text fill="black" x="358.9375" y="395.25">ECB</text>
		<text fill="black" x="390.0625" y="395.25">ECC</text>
		<text fill="black" x="421.1875" y="395.25">ECD</text>
		<text fill="black" x="452.3125" y="395.25">ECE</text>
		<text fill="black" x="483.4375" y="395.25">ECF</text>
		<text fill="black" x="16.5625" y="426.375">ED0</text>
		<text fill="black" x="47.6875" y="426.375">ED1</text>
		<text fill="black" x="78.8125" y="426.375">ED2</text>
		<text fill="black" x="109.9375" y="426.375">ED3</text>
		<text fill="black" x="141.0625" y="426.375">ED4</text>
		<text fill="black" x="172.1875" y="426.375">ED5</text>
		<text fill="black" x="203.3125" y="426.375">ED6</text>
		<text fill="black" x="234.4375" y="426.375">ED7</text>
		<text fill="black" x="265.5625" y="426.375">ED8</text>
		<text fill="black" x="296.6875" y="426.375">ED9</text>
		<text fill="black" x="327.8125" y="426.375">EDA</text>
		<text fill="black" x="358.9375" y="426.375">EDB</text>
		<text fill="black" x="390.0625" y="426.375">EDC</text>
		<text fill="black" x="421.1875" y="426.375">EDD</text>
		<text fill="black" x="452.3125" y="426.375">EDE</text>
		<text fill="black" x="483.4375" y="426.375">EDF</text>
		<text fill="black" x="16.5625" y="457.5">EE0</text>
		<text fill="black" x="47.6875" y="457.5">EE1</text>
		<text fill="black" x="78.8125" y="457.5">EE2</text>
		<text fill="black" x="109.9375" y="457.5">EE3</text>
		<text fill="black" x="141.0625" y="457.5">EE4</text>
		<text fill="black" x="172.1875" y="457.5">EE5</text>
		<text fill="black" x="203.3125" y="457.5">EE6</text>
		<text fill="black" x="234.4375" y="457.5">EE7</text>
		<text fill="black" x="265.5625" y="457.5">EE8</text>
		<text fill="black" x="296.6875" y="457.5">EE9</text>
		<text fill="black" x="327.8125" y="457.5">EEA</text>
		<text fill="black" x="358.9375" y="457.5">EEB</text>
		<text fill="black" x="390.0625" y="457.5">EEC</text>
		<text fill="black" x="421.1875" y="457.5">EED</text>
		<text fill="black" x="452.3125" y="457.5">EEE</text>
		<text fill="black" x="483.4375" y="457.5">EEF</text>
		<text fill="black" x="16.5625" y="488.625">EF0</text>
		<text fill="black" x="47.6875" y="488.625">EF1</text>
		<text fill="black" x="78.8125" y="488.625">EF2</text>
		<text fill="black" x="109.9375" y="488.625">EF3</text>
		<text fill="black" x="141.0625" y="488.625">EF4</text>
		<text fill="black" x="172.1875" y="488.625">EF5</text>
		<text fill="black" x="203.3125" y="488.625">EF6</text>
		<text fill="black" x="234.4375" y="488.625">EF7</text>
		<text fill="black" x="265.5625" y="488.625">EF8</text>
		<text fill="black" x="296.6875" y="488.625">EF9</text>
		<text fill="black" x="327.8125" y="488.625">EFA</text>
		<text fill="black" x="358.9375" y="488.625">EFB</text>
		<text fill="black" x="390.0625" y="488.625">EFC</text>
		<text fill="black" x="421.1875" y="488.625">EFD</text>
		<text fill="black" x="452.3125" y="488.625">EFE</text>
		<text fill="black" x="483.4375" y="488.625">EFF</text>
	</g>
	<g stroke="gainsboro" stroke-width="2px">
		<rect fill="slategray" height="13" width="25" x="518" y="17" />
		<rect fill="darkkhaki" height="13" width="25" x="518" y="43.25" />
		<rect fill="white" height="13" width="25" x="518" y="69.5" />
	</g>
	<g font-family="'DejaVu Sans', sans-serif" font-size="13px" text-anchor="start" xml:lang="en">
		<text x="553" y="27">Tags</text>
		<text x="553" y="53.25">Variation Selectors</text>
		<text x="553" y="79.5">Unallocated code points</text>
		<text x="528" y="115.75">As of Unicode 15.0</text>
	</g>
</svg>